<?xml version="1.0" encoding="UTF-8"?>
<svg id="Calque_2" data-name="Calque 2" xmlns="http://www.w3.org/2000/svg" viewBox="0 0 128.75 70">
  <defs>
    <style>
      .cls-1 {
        fill: #fff;
      }
    </style>
  </defs>
  <g id="Calque_1-2" data-name="Calque 1">
    <g>
      <g>
        <path class="cls-1" d="m4.42,29.12c-1.35-.67-2.39-1.61-3.13-2.8-.74-1.19-1.12-2.56-1.12-4.1v-1.3c0-.2.06-.35.17-.46s.27-.17.46-.17h6.56c.2,0,.35.06.46.17.11.11.17.27.17.46v.93c0,.45.11.81.34,1.09.22.28.5.42.84.42s.62-.13.84-.38c.22-.25.34-.57.34-.97,0-.48-.22-.95-.67-1.41-.45-.46-1.39-1.2-2.82-2.21-1.4-.98-2.56-1.88-3.47-2.69-.91-.81-1.7-1.84-2.38-3.07-.67-1.23-1.01-2.65-1.01-4.25s.37-3.11,1.11-4.38,1.8-2.24,3.16-2.95,2.92-1.05,4.69-1.05,3.37.35,4.73,1.05c1.36.7,2.41,1.68,3.16,2.95.74,1.26,1.11,2.72,1.11,4.38v.93c0,.2-.06.35-.17.46-.11.11-.27.17-.46.17h-6.52c-.2,0-.35-.06-.46-.17-.11-.11-.17-.27-.17-.46v-1.09c0-.42-.11-.76-.34-1.03-.22-.27-.52-.4-.88-.4s-.65.14-.86.42c-.21.28-.32.66-.32,1.14,0,.56.22,1.1.67,1.62.45.52,1.35,1.27,2.69,2.25,1.8,1.32,3.15,2.38,4.06,3.2.91.81,1.63,1.73,2.15,2.76.52,1.02.78,2.22.78,3.6,0,2.55-.83,4.59-2.48,6.1-1.66,1.51-3.83,2.27-6.52,2.27-1.8,0-3.37-.34-4.71-1.01Z"/>
        <path class="cls-1" d="m30.97,13.21c-.11.11-.27.17-.46.17h-1.77c-.17,0-.25.08-.25.25v8.08c0,.5.11.85.34,1.03.22.18.55.26.97.23h.08c.2,0,.35.06.46.17.11.11.17.27.17.46v5.55c0,.2-.06.35-.17.46-.11.11-.27.17-.46.17h-2.02c-2.33,0-4.07-.33-5.22-.99-1.15-.66-1.73-1.96-1.73-3.89v-11.28c0-.17-.08-.25-.25-.25h-1.14c-.2,0-.35-.06-.46-.17-.11-.11-.17-.27-.17-.46v-4.21c0-.2.06-.35.17-.46.11-.11.27-.17.46-.17h1.14c.17,0,.25-.08.25-.25V3.16c0-.2.06-.35.17-.46.11-.11.27-.17.46-.17h6.31c.2,0,.35.06.46.17.11.11.17.27.17.46v4.5c0,.17.08.25.25.25h1.77c.2,0,.35.06.46.17.11.11.17.27.17.46v4.21c0,.2-.06.35-.17.46Z"/>
        <path class="cls-1" d="m45.7,8.04c.25.14.35.41.29.8l-1.05,6.61c-.03.22-.1.37-.21.42-.11.06-.28.06-.5,0-.28-.08-.6-.13-.97-.13-.59,0-1.08.1-1.47.29-.39.2-.71.51-.95.95-.24.44-.36.88-.36,1.33v10.81c0,.2-.06.35-.17.46s-.27.17-.46.17h-6.65c-.2,0-.35-.06-.46-.17-.11-.11-.17-.27-.17-.46V8.54c0-.2.06-.35.17-.46.11-.11.27-.17.46-.17h6.65c.2,0,.35.06.46.17.11.11.17.27.17.46v.88c0,.11.03.18.08.21.06.03.11-.01.17-.13.7-1.26,1.78-1.89,3.24-1.89.67,0,1.25.14,1.72.42Z"/>
        <path class="cls-1" d="m64.13,20.66c-.11.11-.27.17-.46.17h-8.92c-.17,0-.25.08-.25.25v.93c0,.39.09.72.27.97.18.25.41.38.69.38s.5-.1.65-.29c.15-.2.26-.45.32-.76.14-.39.38-.57.72-.55l6.44.42c.42.06.62.28.59.67-.14,2.47-.92,4.3-2.34,5.49-1.42,1.19-3.54,1.79-6.38,1.79s-4.99-.65-6.54-1.96c-1.56-1.3-2.34-3.15-2.34-5.53v-7.57c0-2.27.78-4.09,2.36-5.45,1.57-1.36,3.75-2.04,6.52-2.04s4.94.68,6.5,2.04c1.56,1.36,2.34,3.18,2.34,5.45v5.13c0,.2-.06.35-.17.46Zm-9.36-5.93c-.18.25-.27.58-.27.97v1.01c0,.17.08.25.25.25h1.39c.17,0,.25-.08.25-.25v-1.01c0-.39-.08-.72-.25-.97-.17-.25-.39-.38-.67-.38s-.51.13-.69.38Z"/>
        <path class="cls-1" d="m83.28,20.66c-.11.11-.27.17-.46.17h-8.92c-.17,0-.25.08-.25.25v.93c0,.39.09.72.27.97.18.25.41.38.69.38s.5-.1.65-.29c.15-.2.26-.45.32-.76.14-.39.38-.57.72-.55l6.44.42c.42.06.62.28.59.67-.14,2.47-.92,4.3-2.34,5.49-1.42,1.19-3.54,1.79-6.38,1.79s-4.99-.65-6.54-1.96c-1.56-1.3-2.34-3.15-2.34-5.53v-7.57c0-2.27.78-4.09,2.36-5.45,1.57-1.36,3.75-2.04,6.52-2.04s4.94.68,6.5,2.04c1.56,1.36,2.34,3.18,2.34,5.45v5.13c0,.2-.06.35-.17.46Zm-9.36-5.93c-.18.25-.27.58-.27.97v1.01c0,.17.08.25.25.25h1.39c.17,0,.25-.08.25-.25v-1.01c0-.39-.08-.72-.25-.97-.17-.25-.39-.38-.67-.38s-.51.13-.69.38Z"/>
        <path class="cls-1" d="m96.24,13.21c-.11.11-.27.17-.46.17h-1.77c-.17,0-.25.08-.25.25v8.08c0,.5.11.85.34,1.03.22.18.55.26.97.23h.08c.2,0,.35.06.46.17.11.11.17.27.17.46v5.55c0,.2-.06.35-.17.46-.11.11-.27.17-.46.17h-2.02c-2.33,0-4.07-.33-5.22-.99-1.15-.66-1.73-1.96-1.73-3.89v-11.28c0-.17-.08-.25-.25-.25h-1.14c-.2,0-.35-.06-.46-.17-.11-.11-.17-.27-.17-.46v-4.21c0-.2.06-.35.17-.46.11-.11.27-.17.46-.17h1.14c.17,0,.25-.08.25-.25V3.16c0-.2.06-.35.17-.46.11-.11.27-.17.46-.17h6.31c.2,0,.35.06.46.17.11.11.17.27.17.46v4.5c0,.17.08.25.25.25h1.77c.2,0,.35.06.46.17.11.11.17.27.17.46v4.21c0,.2-.06.35-.17.46Z"/>
      </g>
      <g>
        <path class="cls-1" d="m94.04,38.03c-.76-.39-1.35-.93-1.77-1.63s-.63-1.51-.63-2.42v-1.34c0-.11.03-.19.09-.25s.15-.09.25-.09h3.66c.11,0,.19.03.25.09.06.06.09.15.09.25v1.39c0,.25.06.45.18.61.12.16.29.24.49.24.22,0,.39-.08.52-.24.13-.16.2-.37.2-.61v-11.46c0-.11.03-.19.09-.25.06-.06.15-.09.25-.09h3.66c.11,0,.19.03.25.09.06.06.09.15.09.25v11.41c0,.91-.21,1.72-.64,2.42-.42.7-1.02,1.25-1.78,1.63-.76.39-1.65.58-2.65.58s-1.86-.19-2.63-.58Z"/>
        <path class="cls-1" d="m110.34,26.69c.76.32,1.35.78,1.77,1.37.42.59.62,1.27.62,2.04v7.98c0,.11-.03.19-.09.25s-.15.09-.25.09h-3.66c-.11,0-.19-.03-.25-.09-.06-.06-.09-.15-.09-.25v-.49c0-.06-.02-.1-.05-.1-.03,0-.07.01-.12.06-.52.71-1.34,1.06-2.45,1.06-2.1,0-3.15-1.23-3.15-3.68,0-1.08.19-1.88.58-2.41s.91-.86,1.57-1.02c.66-.15,1.56-.23,2.68-.23h.79c.09,0,.14-.05.14-.14v-.51c0-.2-.06-.37-.19-.5-.12-.13-.29-.2-.49-.2-.26,0-.45.14-.56.42-.08.22-.2.32-.37.32l-3.7-.05c-.23,0-.35-.11-.35-.32.08-1.28.57-2.28,1.47-3.01.9-.72,2.07-1.09,3.51-1.09.99,0,1.86.16,2.63.49Zm-2.19,8.62c.15-.12.23-.27.23-.45v-.62c0-.09-.05-.14-.14-.14h-.46c-.22,0-.39.07-.52.22-.13.15-.2.32-.2.52s.06.36.17.47c.12.12.25.17.41.17.18,0,.35-.06.51-.17Z"/>
        <path class="cls-1" d="m128.75,30.37v7.71c0,.11-.03.19-.09.25-.06.06-.15.09-.25.09h-3.66c-.11,0-.19-.03-.25-.09s-.09-.15-.09-.25v-7.41c0-.49-.16-.74-.49-.74-.35,0-.53.25-.53.74v7.41c0,.11-.03.19-.09.25-.06.06-.15.09-.25.09h-3.66c-.11,0-.19-.03-.25-.09s-.09-.15-.09-.25v-7.41c0-.49-.16-.74-.49-.74-.35,0-.53.25-.53.74v7.41c0,.11-.03.19-.09.25-.06.06-.15.09-.25.09h-3.66c-.11,0-.19-.03-.25-.09s-.09-.15-.09-.25v-11.34c0-.11.03-.19.09-.25s.15-.09.25-.09h3.66c.23,0,.35.11.35.32v.09c0,.06.01.1.05.12.03.02.07,0,.12-.05.51-.45,1.15-.67,1.92-.67,1.23,0,2.11.44,2.64,1.32.03.03.05.05.07.05.06,0,.14-.07.23-.21.57-.77,1.38-1.16,2.43-1.16,2.19,0,3.29,1.39,3.29,4.17Z"/>
      </g>
      <g>
        <path class="cls-1" d="m12.08,47.95c.11.11.17.27.17.46v4.21c0,.2-.06.35-.17.46s-.27.17-.46.17h-1.56c-.17,0-.25.08-.25.25v15.53c0,.2-.06.35-.17.46-.11.11-.27.17-.46.17H2.52c-.2,0-.35-.06-.46-.17-.11-.11-.17-.27-.17-.46v-15.53c0-.17-.08-.25-.25-.25h-.84c-.2,0-.35-.06-.46-.17-.11-.11-.17-.27-.17-.46v-4.21c0-.2.06-.35.17-.46s.27-.17.46-.17h.84c.17,0,.25-.08.25-.25v-1.26c0-2.3.64-3.89,1.91-4.78,1.28-.88,3.22-1.33,5.83-1.33.76,0,1.33.01,1.73.04.08,0,.15.06.21.17.06.11.08.27.08.46v4c0,.42-.1.63-.29.63-.5.06-.89.22-1.16.5-.27.28-.4.62-.4,1.01v.55c0,.17.08.25.25.25h1.56c.2,0,.35.06.46.17Z"/>
        <path class="cls-1" d="m31.05,60.53c-.11.11-.27.17-.46.17h-8.92c-.17,0-.25.08-.25.25v.93c0,.39.09.72.27.97.18.25.41.38.69.38s.5-.1.65-.29c.15-.2.26-.45.32-.76.14-.39.38-.57.72-.55l6.44.42c.42.06.62.28.59.67-.14,2.47-.92,4.3-2.34,5.49-1.42,1.19-3.54,1.79-6.38,1.79s-4.99-.65-6.54-1.96c-1.56-1.3-2.34-3.15-2.34-5.53v-7.57c0-2.27.78-4.09,2.36-5.45,1.57-1.36,3.75-2.04,6.52-2.04s4.94.68,6.5,2.04c1.56,1.36,2.34,3.18,2.34,5.45v5.13c0,.2-.06.35-.17.46Zm-9.36-5.93c-.18.25-.27.58-.27.97v1.01c0,.17.08.25.25.25h1.39c.17,0,.25-.08.25-.25v-1.01c0-.39-.08-.72-.25-.97-.17-.25-.39-.38-.67-.38s-.51.13-.69.38Z"/>
        <path class="cls-1" d="m34.82,68.11c-1.61-1.26-2.42-2.93-2.42-5.01v-.13c0-.2.06-.35.17-.46.11-.11.27-.17.46-.17h6.31c.2,0,.35.05.46.15.11.1.17.23.17.4,0,.42.13.74.38.97.25.22.53.34.84.34.25,0,.45-.08.59-.23.14-.15.21-.34.21-.57,0-.42-.21-.74-.63-.95-.42-.21-1.12-.46-2.1-.74-.34-.08-.73-.2-1.18-.34-1.49-.48-2.76-1.26-3.81-2.34-1.05-1.08-1.58-2.56-1.58-4.44,0-2.19.76-3.93,2.27-5.22s3.51-1.94,5.98-1.94,4.64.7,6.19,2.1c1.54,1.4,2.31,3.25,2.31,5.55,0,.11-.06.21-.17.29-.11.08-.27.13-.46.13h-6.1c-.2,0-.35-.06-.46-.17-.11-.11-.17-.27-.17-.46v-.25c0-.34-.09-.6-.27-.8-.18-.2-.4-.29-.65-.29-.28,0-.5.11-.65.34-.15.22-.23.48-.23.76,0,.56.27,1,.82,1.3.55.31,1.25.59,2.12.84,2.02.59,3.65,1.35,4.88,2.27,1.23.93,1.85,2.34,1.85,4.25,0,2.08-.79,3.71-2.38,4.9-1.59,1.19-3.68,1.79-6.29,1.79s-4.85-.63-6.46-1.89Z"/>
        <path class="cls-1" d="m62.57,53.08c-.11.11-.27.17-.46.17h-1.77c-.17,0-.25.08-.25.25v8.08c0,.5.11.85.34,1.03.22.18.55.26.97.23h.08c.2,0,.35.06.46.17.11.11.17.27.17.46v5.55c0,.2-.06.35-.17.46-.11.11-.27.17-.46.17h-2.02c-2.33,0-4.07-.33-5.22-.99-1.15-.66-1.73-1.96-1.73-3.89v-11.28c0-.17-.08-.25-.25-.25h-1.14c-.2,0-.35-.06-.46-.17-.11-.11-.17-.27-.17-.46v-4.21c0-.2.06-.35.17-.46.11-.11.27-.17.46-.17h1.14c.17,0,.25-.08.25-.25v-4.5c0-.2.06-.35.17-.46.11-.11.27-.17.46-.17h6.31c.2,0,.35.06.46.17.11.11.17.27.17.46v4.5c0,.17.08.25.25.25h1.77c.2,0,.35.06.46.17.11.11.17.27.17.46v4.21c0,.2-.06.35-.17.46Z"/>
        <path class="cls-1" d="m65.12,45.19c-.74-.74-1.11-1.69-1.11-2.84s.37-2.13,1.11-2.86c.74-.73,1.69-1.09,2.84-1.09s2.1.37,2.84,1.09c.74.73,1.12,1.68,1.12,2.86s-.37,2.06-1.12,2.82c-.74.76-1.69,1.14-2.84,1.14s-2.1-.37-2.84-1.11Zm-.86,24.3c-.11-.11-.17-.27-.17-.46v-20.62c0-.2.06-.35.17-.46.11-.11.27-.17.46-.17h6.65c.2,0,.35.06.46.17.11.11.17.27.17.46v20.62c0,.2-.06.35-.17.46s-.27.17-.46.17h-6.65c-.2,0-.35-.06-.46-.17Z"/>
        <path class="cls-1" d="m78.22,69.12l-4.97-20.62v-.17c0-.36.18-.55.55-.55h7.28c.39,0,.6.2.63.59l.88,9.17s.07.04.13.04.1-.01.13-.04l.88-9.17c.03-.39.24-.59.63-.59l7.28.08c.2,0,.35.06.46.19.11.13.14.3.08.53l-4.97,20.54c-.08.36-.31.55-.67.55h-7.66c-.36,0-.59-.18-.67-.55Z"/>
        <path class="cls-1" d="m106.4,48.33c1.39.59,2.46,1.42,3.22,2.48.76,1.07,1.14,2.3,1.14,3.7v14.52c0,.2-.06.35-.17.46-.11.11-.27.17-.46.17h-6.65c-.2,0-.35-.06-.46-.17-.11-.11-.17-.27-.17-.46v-.88c0-.11-.03-.18-.08-.19-.06-.01-.13.02-.21.11-.95,1.29-2.44,1.94-4.46,1.94-3.82,0-5.72-2.23-5.72-6.69,0-1.96.35-3.42,1.05-4.38.7-.95,1.66-1.57,2.86-1.85,1.21-.28,2.83-.42,4.88-.42h1.43c.17,0,.25-.08.25-.25v-.93c0-.36-.11-.67-.34-.9-.22-.24-.52-.36-.88-.36-.48,0-.81.25-1.01.76-.14.39-.36.59-.67.59l-6.73-.08c-.42,0-.63-.2-.63-.59.14-2.33,1.03-4.15,2.67-5.47,1.64-1.32,3.77-1.98,6.37-1.98,1.8,0,3.39.29,4.78.88Zm-3.98,15.67c.28-.21.42-.48.42-.82v-1.14c0-.17-.08-.25-.25-.25h-.84c-.39,0-.71.13-.95.4-.24.27-.36.58-.36.95s.1.65.32.86c.21.21.46.32.74.32.34,0,.64-.11.93-.32Z"/>
        <path class="cls-1" d="m112.52,69.5c-.11-.11-.17-.27-.17-.46v-28.19c0-.2.06-.35.17-.46s.27-.17.46-.17h6.65c.2,0,.35.06.46.17.11.11.17.27.17.46v28.19c0,.2-.06.35-.17.46s-.27.17-.46.17h-6.65c-.2,0-.35-.06-.46-.17Z"/>
      </g>
    </g>
  </g>
</svg>