<?xml version="1.0" encoding="UTF-8"?>
<svg id="Calque_2" data-name="Calque 2" xmlns="http://www.w3.org/2000/svg" viewBox="0 0 122.38 66.54">
  <g id="Calque_1-2" data-name="Calque 1">
    <g>
      <g>
        <path d="m4.2,27.68c-1.28-.64-2.27-1.53-2.98-2.66-.71-1.13-1.06-2.43-1.06-3.9v-1.24c0-.19.05-.33.16-.44s.25-.16.44-.16h6.24c.19,0,.33.05.44.16.11.11.16.25.16.44v.88c0,.43.11.77.32,1.04.21.27.48.4.8.4s.59-.12.8-.36c.21-.24.32-.55.32-.92,0-.45-.21-.9-.64-1.34-.43-.44-1.32-1.14-2.68-2.1-1.33-.93-2.43-1.79-3.3-2.56-.87-.77-1.62-1.75-2.26-2.92-.64-1.17-.96-2.52-.96-4.04s.35-2.96,1.06-4.16,1.71-2.13,3-2.8,2.78-1,4.46-1,3.21.33,4.5,1c1.29.67,2.29,1.6,3,2.8.71,1.2,1.06,2.59,1.06,4.16v.88c0,.19-.05.33-.16.44-.11.11-.25.16-.44.16h-6.2c-.19,0-.33-.05-.44-.16-.11-.11-.16-.25-.16-.44v-1.04c0-.4-.11-.73-.32-.98-.21-.25-.49-.38-.84-.38s-.62.13-.82.4c-.2.27-.3.63-.3,1.08,0,.53.21,1.05.64,1.54.43.49,1.28,1.21,2.56,2.14,1.71,1.25,2.99,2.27,3.86,3.04.87.77,1.55,1.65,2.04,2.62.49.97.74,2.11.74,3.42,0,2.43-.79,4.36-2.36,5.8-1.57,1.44-3.64,2.16-6.2,2.16-1.71,0-3.2-.32-4.48-.96Z"/>
        <path d="m29.44,12.56c-.11.11-.25.16-.44.16h-1.68c-.16,0-.24.08-.24.24v7.68c0,.48.11.81.32.98.21.17.52.25.92.22h.08c.19,0,.33.05.44.16.11.11.16.25.16.44v5.28c0,.19-.05.33-.16.44-.11.11-.25.16-.44.16h-1.92c-2.21,0-3.87-.31-4.96-.94-1.09-.63-1.64-1.86-1.64-3.7v-10.72c0-.16-.08-.24-.24-.24h-1.08c-.19,0-.33-.05-.44-.16-.11-.11-.16-.25-.16-.44v-4c0-.19.05-.33.16-.44.11-.11.25-.16.44-.16h1.08c.16,0,.24-.08.24-.24V3c0-.19.05-.33.16-.44.11-.11.25-.16.44-.16h6c.19,0,.33.05.44.16.11.11.16.25.16.44v4.28c0,.16.08.24.24.24h1.68c.19,0,.33.05.44.16.11.11.16.25.16.44v4c0,.19-.05.33-.16.44Z"/>
        <path d="m43.44,7.64c.24.13.33.39.28.76l-1,6.28c-.03.21-.09.35-.2.4-.11.05-.27.05-.48,0-.27-.08-.57-.12-.92-.12-.56,0-1.03.09-1.4.28-.37.19-.67.49-.9.9-.23.41-.34.83-.34,1.26v10.28c0,.19-.05.33-.16.44s-.25.16-.44.16h-6.32c-.19,0-.33-.05-.44-.16-.11-.11-.16-.25-.16-.44V8.12c0-.19.05-.33.16-.44.11-.11.25-.16.44-.16h6.32c.19,0,.33.05.44.16.11.11.16.25.16.44v.84c0,.11.03.17.08.2.05.03.11-.01.16-.12.67-1.2,1.69-1.8,3.08-1.8.64,0,1.19.13,1.64.4Z"/>
        <path d="m60.96,19.64c-.11.11-.25.16-.44.16h-8.48c-.16,0-.24.08-.24.24v.88c0,.37.09.68.26.92.17.24.39.36.66.36s.47-.09.62-.28c.15-.19.25-.43.3-.72.13-.37.36-.55.68-.52l6.12.4c.4.05.59.27.56.64-.13,2.35-.87,4.09-2.22,5.22-1.35,1.13-3.37,1.7-6.06,1.7s-4.74-.62-6.22-1.86c-1.48-1.24-2.22-2.99-2.22-5.26v-7.2c0-2.16.75-3.89,2.24-5.18,1.49-1.29,3.56-1.94,6.2-1.94s4.7.65,6.18,1.94c1.48,1.29,2.22,3.02,2.22,5.18v4.88c0,.19-.05.33-.16.44Zm-8.9-5.64c-.17.24-.26.55-.26.92v.96c0,.16.08.24.24.24h1.32c.16,0,.24-.08.24-.24v-.96c0-.37-.08-.68-.24-.92-.16-.24-.37-.36-.64-.36s-.49.12-.66.36Z"/>
        <path d="m79.16,19.64c-.11.11-.25.16-.44.16h-8.48c-.16,0-.24.08-.24.24v.88c0,.37.09.68.26.92.17.24.39.36.66.36s.47-.09.62-.28c.15-.19.25-.43.3-.72.13-.37.36-.55.68-.52l6.12.4c.4.05.59.27.56.64-.13,2.35-.87,4.09-2.22,5.22-1.35,1.13-3.37,1.7-6.06,1.7s-4.74-.62-6.22-1.86c-1.48-1.24-2.22-2.99-2.22-5.26v-7.2c0-2.16.75-3.89,2.24-5.18,1.49-1.29,3.56-1.94,6.2-1.94s4.7.65,6.18,1.94c1.48,1.29,2.22,3.02,2.22,5.18v4.88c0,.19-.05.33-.16.44Zm-8.9-5.64c-.17.24-.26.55-.26.92v.96c0,.16.08.24.24.24h1.32c.16,0,.24-.08.24-.24v-.96c0-.37-.08-.68-.24-.92-.16-.24-.37-.36-.64-.36s-.49.12-.66.36Z"/>
        <path d="m91.48,12.56c-.11.11-.25.16-.44.16h-1.68c-.16,0-.24.08-.24.24v7.68c0,.48.11.81.32.98.21.17.52.25.92.22h.08c.19,0,.33.05.44.16.11.11.16.25.16.44v5.28c0,.19-.05.33-.16.44-.11.11-.25.16-.44.16h-1.92c-2.21,0-3.87-.31-4.96-.94-1.09-.63-1.64-1.86-1.64-3.7v-10.72c0-.16-.08-.24-.24-.24h-1.08c-.19,0-.33-.05-.44-.16-.11-.11-.16-.25-.16-.44v-4c0-.19.05-.33.16-.44.11-.11.25-.16.44-.16h1.08c.16,0,.24-.08.24-.24V3c0-.19.05-.33.16-.44.11-.11.25-.16.44-.16h6c.19,0,.33.05.44.16.11.11.16.25.16.44v4.28c0,.16.08.24.24.24h1.68c.19,0,.33.05.44.16.11.11.16.25.16.44v4c0,.19-.05.33-.16.44Z"/>
      </g>
      <g>
        <path d="m89.4,36.15c-.73-.37-1.29-.88-1.68-1.55s-.59-1.43-.59-2.3v-1.28c0-.1.03-.18.09-.24s.14-.09.24-.09h3.48c.1,0,.18.03.24.09.06.06.09.14.09.24v1.32c0,.23.06.43.18.58.12.15.27.23.46.23.21,0,.37-.08.49-.23.12-.15.19-.35.19-.58v-10.89c0-.1.03-.18.09-.24.06-.06.14-.09.24-.09h3.48c.1,0,.18.03.24.09.06.06.09.14.09.24v10.85c0,.87-.2,1.63-.6,2.3-.4.67-.97,1.18-1.69,1.55-.73.37-1.57.55-2.52.55s-1.77-.18-2.5-.55Z"/>
        <path d="m104.88,25.37c.73.31,1.29.74,1.68,1.3.4.56.59,1.2.59,1.94v7.59c0,.1-.03.18-.09.24s-.14.09-.24.09h-3.48c-.1,0-.18-.03-.24-.09-.06-.06-.09-.14-.09-.24v-.46c0-.06-.02-.09-.04-.1-.03,0-.07.01-.11.06-.5.67-1.28,1.01-2.33,1.01-1.99,0-2.99-1.17-2.99-3.5,0-1.03.18-1.79.55-2.29s.87-.82,1.5-.97c.63-.15,1.48-.22,2.55-.22h.75c.09,0,.13-.04.13-.13v-.48c0-.19-.06-.35-.18-.47-.12-.12-.27-.19-.46-.19-.25,0-.43.13-.53.4-.07.21-.19.31-.35.31l-3.52-.04c-.22,0-.33-.1-.33-.31.07-1.22.54-2.17,1.4-2.86.86-.69,1.97-1.03,3.33-1.03.94,0,1.77.15,2.5.46Zm-2.08,8.19c.15-.11.22-.25.22-.43v-.59c0-.09-.04-.13-.13-.13h-.44c-.21,0-.37.07-.5.21-.12.14-.19.3-.19.49s.06.34.17.45c.11.11.24.17.39.17.18,0,.34-.06.48-.17Z"/>
        <path d="m122.38,28.86v7.33c0,.1-.03.18-.09.24-.06.06-.14.09-.24.09h-3.48c-.1,0-.18-.03-.24-.09s-.09-.14-.09-.24v-7.04c0-.47-.15-.7-.46-.7-.34,0-.51.23-.51.7v7.04c0,.1-.03.18-.09.24-.06.06-.14.09-.24.09h-3.48c-.1,0-.18-.03-.24-.09s-.09-.14-.09-.24v-7.04c0-.47-.15-.7-.46-.7-.34,0-.51.23-.51.7v7.04c0,.1-.03.18-.09.24-.06.06-.14.09-.24.09h-3.48c-.1,0-.18-.03-.24-.09s-.09-.14-.09-.24v-10.78c0-.1.03-.18.09-.24s.14-.09.24-.09h3.48c.22,0,.33.1.33.31v.09c0,.06.01.1.04.11.03.01.07,0,.11-.04.48-.43,1.09-.64,1.83-.64,1.17,0,2.01.42,2.51,1.25.03.03.05.04.07.04.06,0,.13-.07.22-.2.54-.73,1.31-1.1,2.31-1.1,2.08,0,3.12,1.32,3.12,3.96Z"/>
      </g>
      <g>
        <path d="m11.48,45.58c.11.11.16.25.16.44v4c0,.19-.05.33-.16.44s-.25.16-.44.16h-1.48c-.16,0-.24.08-.24.24v14.76c0,.19-.05.33-.16.44-.11.11-.25.16-.44.16H2.4c-.19,0-.33-.05-.44-.16-.11-.11-.16-.25-.16-.44v-14.76c0-.16-.08-.24-.24-.24h-.8c-.19,0-.33-.05-.44-.16-.11-.11-.16-.25-.16-.44v-4c0-.19.05-.33.16-.44s.25-.16.44-.16h.8c.16,0,.24-.08.24-.24v-1.2c0-2.19.61-3.7,1.82-4.54,1.21-.84,3.06-1.26,5.54-1.26.72,0,1.27.01,1.64.04.08,0,.15.05.2.16.05.11.08.25.08.44v3.8c0,.4-.09.6-.28.6-.48.05-.85.21-1.1.48-.25.27-.38.59-.38.96v.52c0,.16.08.24.24.24h1.48c.19,0,.33.05.44.16Z"/>
        <path d="m29.52,57.54c-.11.11-.25.16-.44.16h-8.48c-.16,0-.24.08-.24.24v.88c0,.37.09.68.26.92.17.24.39.36.66.36s.47-.09.62-.28c.15-.19.25-.43.3-.72.13-.37.36-.55.68-.52l6.12.4c.4.05.59.27.56.64-.13,2.35-.87,4.09-2.22,5.22-1.35,1.13-3.37,1.7-6.06,1.7s-4.74-.62-6.22-1.86c-1.48-1.24-2.22-2.99-2.22-5.26v-7.2c0-2.16.75-3.89,2.24-5.18,1.49-1.29,3.56-1.94,6.2-1.94s4.7.65,6.18,1.94c1.48,1.29,2.22,3.02,2.22,5.18v4.88c0,.19-.05.33-.16.44Zm-8.9-5.64c-.17.24-.26.55-.26.92v.96c0,.16.08.24.24.24h1.32c.16,0,.24-.08.24-.24v-.96c0-.37-.08-.68-.24-.92-.16-.24-.37-.36-.64-.36s-.49.12-.66.36Z"/>
        <path d="m33.1,64.74c-1.53-1.2-2.3-2.79-2.3-4.76v-.12c0-.19.05-.33.16-.44.11-.11.25-.16.44-.16h6c.19,0,.33.05.44.14.11.09.16.22.16.38,0,.4.12.71.36.92.24.21.51.32.8.32.24,0,.43-.07.56-.22.13-.15.2-.33.2-.54,0-.4-.2-.7-.6-.9-.4-.2-1.07-.43-2-.7-.32-.08-.69-.19-1.12-.32-1.41-.45-2.62-1.19-3.62-2.22-1-1.03-1.5-2.43-1.5-4.22,0-2.08.72-3.73,2.16-4.96s3.33-1.84,5.68-1.84,4.41.67,5.88,2c1.47,1.33,2.2,3.09,2.2,5.28,0,.11-.05.2-.16.28-.11.08-.25.12-.44.12h-5.8c-.19,0-.33-.05-.44-.16-.11-.11-.16-.25-.16-.44v-.24c0-.32-.09-.57-.26-.76-.17-.19-.38-.28-.62-.28-.27,0-.47.11-.62.32-.15.21-.22.45-.22.72,0,.53.26.95.78,1.24.52.29,1.19.56,2.02.8,1.92.56,3.47,1.28,4.64,2.16,1.17.88,1.76,2.23,1.76,4.04,0,1.97-.75,3.53-2.26,4.66-1.51,1.13-3.5,1.7-5.98,1.7s-4.61-.6-6.14-1.8Z"/>
        <path d="m59.48,50.46c-.11.11-.25.16-.44.16h-1.68c-.16,0-.24.08-.24.24v7.68c0,.48.11.81.32.98.21.17.52.25.92.22h.08c.19,0,.33.05.44.16.11.11.16.25.16.44v5.28c0,.19-.05.33-.16.44-.11.11-.25.16-.44.16h-1.92c-2.21,0-3.87-.31-4.96-.94-1.09-.63-1.64-1.86-1.64-3.7v-10.72c0-.16-.08-.24-.24-.24h-1.08c-.19,0-.33-.05-.44-.16-.11-.11-.16-.25-.16-.44v-4c0-.19.05-.33.16-.44.11-.11.25-.16.44-.16h1.08c.16,0,.24-.08.24-.24v-4.28c0-.19.05-.33.16-.44.11-.11.25-.16.44-.16h6c.19,0,.33.05.44.16.11.11.16.25.16.44v4.28c0,.16.08.24.24.24h1.68c.19,0,.33.05.44.16.11.11.16.25.16.44v4c0,.19-.05.33-.16.44Z"/>
        <path d="m61.9,42.96c-.71-.71-1.06-1.61-1.06-2.7s.35-2.03,1.06-2.72c.71-.69,1.61-1.04,2.7-1.04s1.99.35,2.7,1.04c.71.69,1.06,1.6,1.06,2.72s-.35,1.96-1.06,2.68c-.71.72-1.61,1.08-2.7,1.08s-1.99-.35-2.7-1.06Zm-.82,23.1c-.11-.11-.16-.25-.16-.44v-19.6c0-.19.05-.33.16-.44.11-.11.25-.16.44-.16h6.32c.19,0,.33.05.44.16.11.11.16.25.16.44v19.6c0,.19-.05.33-.16.44s-.25.16-.44.16h-6.32c-.19,0-.33-.05-.44-.16Z"/>
        <path d="m74.36,65.7l-4.72-19.6v-.16c0-.35.17-.52.52-.52h6.92c.37,0,.57.19.6.56l.84,8.72s.07.04.12.04.09-.01.12-.04l.84-8.72c.03-.37.23-.56.6-.56l6.92.08c.19,0,.33.06.44.18.11.12.13.29.08.5l-4.72,19.52c-.08.35-.29.52-.64.52h-7.28c-.35,0-.56-.17-.64-.52Z"/>
        <path d="m101.14,45.94c1.32.56,2.34,1.35,3.06,2.36.72,1.01,1.08,2.19,1.08,3.52v13.8c0,.19-.05.33-.16.44-.11.11-.25.16-.44.16h-6.32c-.19,0-.33-.05-.44-.16-.11-.11-.16-.25-.16-.44v-.84c0-.11-.03-.17-.08-.18-.05-.01-.12.02-.2.1-.91,1.23-2.32,1.84-4.24,1.84-3.63,0-5.44-2.12-5.44-6.36,0-1.87.33-3.25,1-4.16.67-.91,1.57-1.49,2.72-1.76,1.15-.27,2.69-.4,4.64-.4h1.36c.16,0,.24-.08.24-.24v-.88c0-.35-.11-.63-.32-.86-.21-.23-.49-.34-.84-.34-.45,0-.77.24-.96.72-.13.37-.35.56-.64.56l-6.4-.08c-.4,0-.6-.19-.6-.56.13-2.21.98-3.95,2.54-5.2,1.56-1.25,3.58-1.88,6.06-1.88,1.71,0,3.22.28,4.54.84Zm-3.78,14.9c.27-.2.4-.46.4-.78v-1.08c0-.16-.08-.24-.24-.24h-.8c-.37,0-.67.13-.9.38-.23.25-.34.55-.34.9s.1.62.3.82c.2.2.43.3.7.3.32,0,.61-.1.88-.3Z"/>
        <path d="m106.96,66.06c-.11-.11-.16-.25-.16-.44v-26.8c0-.19.05-.33.16-.44s.25-.16.44-.16h6.32c.19,0,.33.05.44.16.11.11.16.25.16.44v26.8c0,.19-.05.33-.16.44s-.25.16-.44.16h-6.32c-.19,0-.33-.05-.44-.16Z"/>
      </g>
    </g>
  </g>
</svg>